<svg width="287" height="88" viewBox="0 0 287 88" fill="none" xmlns="http://www.w3.org/2000/svg">
<g clip-path="url(#clip0_5514_342524)">
<path fill-rule="evenodd" clip-rule="evenodd" d="M0 0H88V88H0V0ZM21.0046 29.3128H38.6874V36.3877H21.0046V29.3128ZM29.8504 25.771V18.6961L58.15 16.0177V25.771H29.8504ZM29.8504 39.9208H58.15V46.9956H29.8504V39.9208ZM66.9871 50.5286H49.3042V57.6035H66.9871V50.5286ZM29.8504 61.1366V71.1806L58.15 68.2115V61.1366H29.8504Z" fill="#EF6820"/>
<path d="M142.23 45.7199L131.15 46.3999C130.96 45.4499 130.55 44.5999 129.93 43.8299C129.31 43.0599 128.49 42.4499 127.47 41.9799C126.46 41.5199 125.25 41.2799 123.85 41.2799C121.97 41.2799 120.39 41.6699 119.11 42.4599C117.83 43.2499 117.18 44.2899 117.18 45.5999C117.18 46.6399 117.6 47.5199 118.43 48.2399C119.26 48.9599 120.69 49.5399 122.72 49.9699L130.62 51.5599C134.86 52.4299 138.02 53.8299 140.11 55.7599C142.19 57.6899 143.23 60.2299 143.23 63.3699C143.23 66.2299 142.39 68.7399 140.72 70.8999C139.04 73.0599 136.75 74.7399 133.84 75.9399C130.93 77.1399 127.59 77.7399 123.8 77.7399C118.02 77.7399 113.43 76.5299 110.01 74.1199C106.59 71.7099 104.59 68.4099 104 64.2499L115.9 63.6299C116.26 65.3899 117.13 66.7299 118.51 67.6499C119.89 68.5699 121.66 69.0299 123.82 69.0299C125.98 69.0299 127.65 68.6199 128.95 67.7899C130.25 66.9699 130.91 65.8999 130.92 64.5899C130.9 63.4899 130.44 62.5899 129.53 61.8799C128.62 61.1699 127.22 60.6299 125.33 60.2499L117.77 58.7399C113.51 57.8899 110.34 56.4099 108.27 54.3099C106.2 52.2099 105.16 49.5299 105.16 46.2699C105.16 43.4699 105.92 41.0499 107.45 39.0299C108.97 36.9999 111.12 35.4399 113.9 34.3399C116.67 33.2399 119.93 32.6899 123.66 32.6899C129.17 32.6899 133.51 33.8599 136.69 36.1799C139.86 38.5099 141.71 41.6799 142.24 45.6999L142.23 45.7199Z" fill="#252422"/>
<path d="M161.36 51.68V76.91H149.26V18.73H161.02V40.97H161.53C162.51 38.39 164.11 36.37 166.3 34.9C168.5 33.43 171.25 32.7 174.57 32.7C177.6 32.7 180.25 33.36 182.51 34.67C184.77 35.99 186.53 37.87 187.79 40.32C189.05 42.77 189.67 45.7 189.65 49.11V76.89H177.55V51.27C177.57 48.58 176.89 46.49 175.52 44.99C174.15 43.49 172.23 42.75 169.77 42.75C168.12 42.75 166.67 43.1 165.41 43.8C164.15 44.5 163.17 45.52 162.46 46.85C161.75 48.18 161.39 49.79 161.37 51.67L161.36 51.68Z" fill="#252422"/>
<path d="M217.49 77.76C213 77.76 209.14 76.8499 205.91 75.0199C202.68 73.1899 200.2 70.5999 198.45 67.2399C196.71 63.8799 195.84 59.9 195.84 55.29C195.84 50.68 196.71 46.86 198.45 43.47C200.19 40.08 202.65 37.44 205.82 35.54C208.99 33.65 212.72 32.7 217 32.7C219.88 32.7 222.56 33.16 225.05 34.08C227.54 35 229.72 36.3799 231.58 38.2099C233.45 40.0499 234.9 42.35 235.94 45.13C236.98 47.91 237.5 51.15 237.5 54.86V58.18H200.65V50.68H226.1C226.1 48.94 225.72 47.3899 224.96 46.0499C224.2 44.7099 223.16 43.65 221.82 42.88C220.49 42.11 218.94 41.7299 217.17 41.7299C215.4 41.7299 213.71 42.15 212.3 42.99C210.89 43.83 209.79 44.9599 208.99 46.3699C208.19 47.7799 207.79 49.35 207.77 51.07V58.2C207.77 60.36 208.17 62.22 208.98 63.8C209.78 65.37 210.93 66.58 212.4 67.44C213.88 68.29 215.63 68.72 217.66 68.72C219 68.72 220.24 68.53 221.35 68.15C222.47 67.77 223.42 67.1999 224.22 66.4499C225.02 65.6899 225.62 64.7599 226.04 63.6699H237.23C236.66 66.3699 235.5 69.44 233.75 71.44C232 73.44 229.74 74.9899 226.99 76.0999C224.23 77.2099 221.06 77.76 217.46 77.76H217.49Z" fill="#252422"/>
<path d="M255.92 18.73V76.91H243.82V18.73H255.92Z" fill="#252422"/>
<path d="M284.44 33.27V42.36H263.95V33.27H284.44ZM263.67 76.91V30.12C263.67 26.96 264.29 24.33 265.53 22.25C266.77 20.17 268.47 18.6 270.63 17.56C272.79 16.52 275.24 16 277.99 16C279.85 16 281.55 16.14 283.09 16.43C284.63 16.72 285.78 16.97 286.54 17.2L284.38 26.29C283.91 26.14 283.32 26 282.63 25.86C281.94 25.73 281.23 25.66 280.51 25.66C278.73 25.66 277.49 26.07 276.79 26.9C276.09 27.73 275.74 28.87 275.74 30.35V76.91H263.67Z" fill="#252422"/>
</g>
<defs>
<clipPath id="clip0_5514_342524">
<rect width="287" height="88" fill="white"/>
</clipPath>
</defs>
</svg>
