<svg width="56" height="56" viewBox="0 0 56 56" fill="none" xmlns="http://www.w3.org/2000/svg">
<rect x="4" y="4" width="48" height="48" rx="24" fill="#FDEAD7"/>
<path d="M26.4996 25.0022C26.6758 24.5014 27.0236 24.079 27.4814 23.81C27.9391 23.5409 28.4773 23.4426 29.0006 23.5324C29.524 23.6221 29.9986 23.8942 30.3406 24.3004C30.6825 24.7066 30.8697 25.2207 30.8689 25.7517C30.8689 27.2506 28.6205 28 28.6205 28M28.6495 31H28.6595M28.4996 36C33.194 36 36.9996 32.1944 36.9996 27.5C36.9996 22.8056 33.194 19 28.4996 19C23.8052 19 19.9996 22.8056 19.9996 27.5C19.9996 28.45 20.1555 29.3636 20.443 30.2166C20.5512 30.5376 20.6053 30.6981 20.6151 30.8214C20.6247 30.9432 20.6174 31.0286 20.5873 31.1469C20.5568 31.2668 20.4894 31.3915 20.3547 31.6408L18.7191 34.6684C18.4857 35.1002 18.3691 35.3161 18.3952 35.4828C18.4179 35.6279 18.5034 35.7557 18.6288 35.8322C18.7728 35.9201 19.0169 35.8948 19.5052 35.8444L24.6262 35.315C24.7813 35.299 24.8588 35.291 24.9295 35.2937C24.999 35.2963 25.0481 35.3029 25.1159 35.3185C25.1848 35.3344 25.2714 35.3678 25.4448 35.4345C26.3928 35.7998 27.4228 36 28.4996 36Z" stroke="#EF6820" stroke-width="2" stroke-linecap="round" stroke-linejoin="round"/>
<rect x="4" y="4" width="48" height="48" rx="24" stroke="#FEF6EE" stroke-width="8"/>
</svg>
